<?xml version="1.0" encoding="UTF-8" standalone="no"?>
<svg
   xmlns:dc="http://purl.org/dc/elements/1.1/"
   xmlns:cc="http://creativecommons.org/ns#"
   xmlns:rdf="http://www.w3.org/1999/02/22-rdf-syntax-ns#"
   xmlns:svg="http://www.w3.org/2000/svg"
   xmlns="http://www.w3.org/2000/svg"
   xmlns:sodipodi="http://sodipodi.sourceforge.net/DTD/sodipodi-0.dtd"
   xmlns:inkscape="http://www.inkscape.org/namespaces/inkscape"
   viewBox="0 0 1440 320"
   version="1.1"
   id="svg827"
   sodipodi:docname="background.svg"
   inkscape:version="0.92.4 (5da689c313, 2019-01-14)">
  <metadata
     id="metadata833">
    <rdf:RDF>
      <cc:Work
         rdf:about="">
        <dc:format>image/svg+xml</dc:format>
        <dc:type
           rdf:resource="http://purl.org/dc/dcmitype/StillImage" />
        <dc:title></dc:title>
      </cc:Work>
    </rdf:RDF>
  </metadata>
  <defs
     id="defs831" />
  <sodipodi:namedview
     pagecolor="#ffffff"
     bordercolor="#666666"
     borderopacity="1"
     objecttolerance="10"
     gridtolerance="10"
     guidetolerance="10"
     inkscape:pageopacity="0"
     inkscape:pageshadow="2"
     inkscape:window-width="1920"
     inkscape:window-height="1001"
     id="namedview829"
     showgrid="false"
     inkscape:zoom="0.71054411"
     inkscape:cx="615.91703"
     inkscape:cy="375.60712"
     inkscape:window-x="-9"
     inkscape:window-y="-9"
     inkscape:window-maximized="1"
     inkscape:current-layer="svg827" />
  <path
     d="m 0,256 16,-32 c 16,-32 48,-96 80,-96 32,0 64,64 96,69.3 32,5.7 64,-48.3 96,-64 32,-16.3 64,5.7 96,-5.3 32,-11 64,-53 96,-42.7 32,10.7 64,74.7 96,101.4 32,26.3 64,16.3 96,32 32,16.3 64,58.3 96,64 32,5.3 64,-26.7 96,-42.7 32,-16 64,-16 96,-21.3 32,-5.7 64,-15.7 96,-42.7 32,-27 64,-69 96,-80 32,-11 64,11 96,5.3 32,-5.3 64,-37.3 96,-26.6 32,10.3 64,64.3 80,90.6 l 16,26.7 v -772 h -16 -80 -96 -96 -96 H 960 864 768 672 576 480 384 288 192 96 16 0 Z"
     id="path825"
     inkscape:connector-curvature="0"
     style="fill:#736ed6;fill-opacity:1"
     sodipodi:nodetypes="cssccsccccscssccccccccccccccccccccccc" />
</svg>
