<svg xmlns="http://www.w3.org/2000/svg"  viewBox="0 0 1440 3320">
  <path id="Path_26" data-name="Path 26" d="M-12116.372-7524.24c1324.145,13.33,1703.608-235.9,1917.595-244.441-.719,249.889,3.528,175.959-.095,489.324-.053,2.506.812,48.072.095,592.166,1.773,67.381-32.836,81.168-151.947,229.056-498.708,635.315,104.676,703.32-848.225,229.426-585.081-290.97-222.461,397.124-371.352,360.16-5.956-1.479,5.268,3.168,0,0-129.294-77.749-116.462-644.286-224.211-508.015-290.774,367.742-316.268,414.107-321.86,0S-12116.372-7524.24-12116.372-7524.24Z" transform="translate(12119.321 7769.202)" fill="#736ed6" stroke="#707070" stroke-width="1" fill-opacity="1"/>
</svg>
