<svg id="Component_13_1" data-name="Component 13 – 1" xmlns="http://www.w3.org/2000/svg" width="468" height="480.129" viewBox="0 0 468 480.129">
  <g id="Rectangle_148" data-name="Rectangle 148" fill="#fff" stroke="#fdca00" stroke-width="2">
    <rect width="468" height="334" stroke="none"/>
    <rect x="1" y="1" width="466" height="332" fill="none"/>
  </g>
  <text id="IOTEX" transform="translate(0 347)" font-size="60" font-family="Poppins-SemiBold, Poppins" font-weight="600"><tspan x="150" y="63">IOTEX</tspan></text>
  <text id="irro_keys" data-name="irro&apos;keys" transform="translate(0 424.129)" fill="#fdca00" font-size="40" font-family="Poppins-SemiBold, Poppins" font-weight="600"><tspan x="150" y="42">irro&apos;</tspan><tspan y="42" fill="#000">keys</tspan></text>
  <g id="missed_video_call-24px" transform="translate(115.353 183.237)">
    <path id="Path_88" data-name="Path 88" d="M0,0H24V24H0Z" transform="translate(0 20.76)" fill="none"/>
    <path id="Path_89" data-name="Path 89" d="M196.118,72.113V20.692c0-8.08-6.207-14.692-13.794-14.692H16.794C9.207,6,3,12.611,3,20.692V167.609C3,175.69,9.207,182.3,16.794,182.3h165.53c7.587,0,13.794-6.611,13.794-14.692V116.188l55.177,58.767V13.346ZM99.559,138.226,45.9,81.075v37.464H30.588V53.307H91.834V69.615H56.659l42.9,45.544,58.211-62L168.53,64.767,99.559,138.226Z" transform="translate(0 -99.827)" fill="rgba(7,28,133,0.71)"/>
  </g>
</svg>
